<svg xmlns="http://www.w3.org/2000/svg" width="113" height="52" viewBox="0 0 113 52">
    <defs>
        <filter id="prefix__a">
            <feColorMatrix in="SourceGraphic" values="0 0 0 0 1.000000 0 0 0 0 1.000000 0 0 0 0 1.000000 0 0 0 1.000000 0"/>
        </filter>
    </defs>
    <g fill="none" fill-rule="evenodd" filter="url(#prefix__a)" transform="translate(-304 -32)">
        <g fill="#000" fill-rule="nonzero">
            <g>
                <path d="M2.079 25.765c.535.034 1.003-.367 1.036-.902.234-2.708.267-5.783.167-9.226 2.474-.702 4.012-1.872 4.647-3.51.568-1.605.434-4.647-.368-7.154C6.658 2.03 4.853-.21 2.279.427 1.444.594.91.928.641 1.396c-.1.134-.133.3-.133.468-.034.067-.034.167-.034.267v.636c.034.902.067 1.303.334 4.613.569 7.488.702 13.27.368 17.35-.033.534.368 1.002.903 1.035zm1.103-12.134c-.1-1.738-.234-3.878-.435-6.385-.267-2.942-.3-3.71-.334-4.546v-.335L2.68 2.3c.602-.134 1.17.066 1.672.601 1.07 1.17 1.838 3.71 1.972 6.084.134 2.407.067 3.61-3.142 4.647zm8.257 12c.902.034 2.072-.033 3.51-.2.1.034.167.034.234.034.167 0 .3-.034.434-.1 1.505-.168 2.641-.268 3.41-.268.535 0 .97-.435.97-.97 0-.534-.435-.969-.97-.969-.769 0-1.738.067-2.908.2-.034-.568-.067-1.303-.167-2.206-.134-1.504-.201-2.574-.234-3.209-.067 0-.067-2.54 0-7.655V2.533c.936 0 1.771 0 2.507-.034.535 0 .936-.468.936-1.003 0-.535-.468-.936-1.003-.936-.493.025-1.784.031-3.86.033h-2.525c-.535 0-.97.435-.97.97 0 .535.435.97.97.97h2.006v.066c0 1.137 0 2.742-.034 4.848-.025 1.58-.031 3.046-.033 4.4v1.72c.003 3.172.044 4.8.3 7.752.101 1.07.134 1.806.168 2.24-1.036.1-1.939.167-2.674.134-.535 0-1.003.401-1.003.936s.4 1.003.936 1.003zm13.405.068c1.07.1 4.078.066 5.415-.067.535-.034.903-.535.87-1.07-.034-.535-.536-.903-1.07-.87-1.204.135-4.146.168-5.082.068h-.1l.3-1.571c.101-.368.168-.736.268-1.17.1-.402.167-.77.268-1.07.067-.301.1-.468.1-.535.903-4.011 2.206-8.792 3.978-14.374 0-.034.167-.401.535-1.137.3-.702.401-1.304.3-1.838C30.394.694 29.29.493 28.087.493c-.3 0-.836 0-1.604.034-1.538.033-2.44.067-2.708.033-.268-.033-.502.034-.702.2-.234.168-.334.402-.368.67-.033.534.334 1.036.87 1.07.367.033 1.336 0 2.974-.034.836-.034 1.338-.034 1.538-.034h.468c.034-.033.034-.033.067-.033s.067 0 .033.033c.067-.033.1-.067.1-.033.034.167-.033.368-.2.668-.368.836-.602 1.27-.635 1.371-1.772 5.65-3.109 10.497-3.978 14.575-.033.033-.067.2-.134.501l-.267 1.103c-.1.435-.167.803-.234 1.17-.167.736-.301 1.338-.368 1.772-.033.268-.067.502-.067.669v.334c.1.535.401.836.836.97l.334.1c.234.033.502.067.803.067zm11.131 0c1.07.1 4.079.066 5.416-.067.535-.034.902-.535.869-1.07-.034-.535-.535-.903-1.07-.87-1.203.135-4.145.168-5.081.068h-.1l.3-1.571c.1-.368.168-.736.268-1.17.1-.402.167-.77.267-1.07.067-.301.1-.468.1-.535.903-4.011 2.207-8.792 3.979-14.374 0-.034.167-.401.535-1.137.3-.702.4-1.304.3-1.838C41.524.694 40.421.493 39.218.493c-.301 0-.836 0-1.605.034-1.537.033-2.44.067-2.707.033-.268-.033-.502.034-.702.2-.234.168-.335.402-.368.67-.034.534.334 1.036.869 1.07.368.033 1.337 0 2.975-.034.836-.034 1.337-.034 1.538-.034h.468c.033-.033.033-.033.067-.033.033 0 .067 0 .033.033.067-.033.1-.067.1-.033.034.167-.033.368-.2.668-.368.836-.602 1.27-.635 1.371-1.772 5.65-3.11 10.497-3.978 14.575-.034.033-.067.2-.134.501l-.267 1.103c-.1.435-.168.803-.234 1.17-.168.736-.301 1.338-.368 1.772-.034.268-.067.502-.067.669v.334c.1.535.401.836.836.97l.334.1c.234.033.501.067.802.067zm16.347-1.037c.1.535.602.903 1.136.803.535-.1.903-.602.803-1.137-.167-1.07-.234-2.507-.2-3.61.033-.569.033-1.237 0-2.006-.168-6.017-.469-10.53-.903-13.505-.435-3.076-1.839-5.482-5.015-5.182-1.437.134-2.005.402-2.373 1.973-.234.97-.2 2.106-.167 3.61.033.769.033 1.17.033 1.237 0 2.64.1 5.382.234 9.092l.134 4.146c.1 1.437.1 3.008-.167 4.178-.134.535.167 1.036.702 1.17.535.134 1.036-.167 1.17-.702.367-1.437.334-3.476.234-4.713-.034-.368-.1-2.34-.2-5.85.1.033.166.033.267.033.334 0 1.07.034 2.206.1.769.034 1.337.067 1.772.1.033 1.037.1 2.508.133 4.38.034.769.034 1.404 0 1.872-.033 1.17.034 2.808.2 4.011zm-.435-12.201c-.635-.034-2.908-.2-3.877-.2-.1 0-.234.033-.335.066-.067-2.106-.1-3.911-.1-5.482 0-.1 0-.535-.033-1.304-.034-1.571-.034-2.407.1-3.109.033-.2.1-.334.167-.434.067 0 .234 0 .535-.034 1.705-.167 2.507 1.103 2.875 3.51.3 2.106.535 4.413.668 6.987zM5.25 49.692c.28 0 .462-.046.544-.137.083-.09.124-.21.124-.359 0-.181-.05-.437-.148-.767-.215-.628-.347-1.073-.397-1.337-.148-.71-.223-1.52-.223-2.427v-4.556c0-.132.013-.235.038-.31.024-.074.086-.111.185-.111.132 0 .256.095.372.285l.322.532c.363.644.648 1.052.854 1.226.206.173.458.26.755.26s.578-.157.842-.47l.644-.942c.099-.115.24-.293.42-.532.182-.24.315-.36.397-.36.165 0 .248.158.248.471v4.556c0 .958-.075 1.787-.223 2.49-.149.7-.33 1.39-.545 2.067 0 .28.215.42.644.42.33 0 .652-.016.966-.049.313-.033.742-.05 1.287-.05.528 0 1.024.017 1.486.05.462.033.776.05.94.05.232 0 .385-.046.459-.137.074-.09.111-.21.111-.359 0-.165-.045-.445-.136-.842-.09-.396-.169-.742-.235-1.04-.198-.94-.297-1.956-.297-3.045v-7.503c0-1.106.099-1.915.297-2.427.198-.512.297-1.007.297-1.485 0-.166-.05-.29-.148-.372-.1-.082-.256-.124-.471-.124-.297.033-.59.058-.879.075-.289.016-.69.024-1.201.024-.38 0-.66-.016-.842-.05-.181-.032-.42-.049-.718-.049-.28 0-.508.1-.68.297-.174.199-.533.76-1.078 1.684-.43.727-.784 1.23-1.065 1.51-.214.215-.413.323-.594.323-.347 0-.677-.24-.99-.718-.182-.265-.413-.71-.694-1.338-.148-.346-.297-.701-.446-1.064-.198-.463-.47-.694-.817-.694-.198 0-.4.02-.606.062-.207.041-.582.062-1.127.062-.396 0-.735-.02-1.015-.062-.281-.041-.636-.062-1.065-.062-.149 0-.297.037-.446.112-.148.074-.223.21-.223.408 0 .132.042.326.124.582.083.256.157.524.223.805.066.28.111.664.136 1.151.025.487.037.995.037 1.523v6.884c0 .413-.016 1.048-.05 1.907-.032.858-.073 1.386-.123 1.584-.05.199-.19.66-.421 1.387-.066.198-.099.355-.099.47 0 .215.066.356.198.422s.264.099.396.099c.363-.017.702-.038 1.016-.062.313-.025.767-.037 1.361-.037.496 0 .966.016 1.412.05.446.032.734.049.867.049zm20.973 0c.446 0 .796-.05 1.052-.149.256-.099.384-.314.384-.644l-.05-1.238c0-.347.021-.635.062-.867.042-.23.062-.429.062-.594 0-.132-.04-.26-.123-.384-.083-.123-.24-.185-.471-.185-.215 0-.495.107-.842.322-.198.115-.396.222-.594.321-.462.232-.854.372-1.176.421-.322.05-.764.075-1.325.075h-.322c-.413 0-.718-.058-.916-.174-.297-.181-.446-.536-.446-1.064v-3.764c0-.413.083-.685.248-.817.165-.132.42-.198.767-.198h3.195c.693 0 1.184-.104 1.473-.31.289-.206.433-.45.433-.73 0-.413-.185-.69-.557-.83-.371-.14-.846-.21-1.424-.21-.033 0-.342.016-.928.05-.586.032-1.003.049-1.25.049-.612 0-1.09-.075-1.437-.223-.347-.149-.52-.413-.52-.793 0-.33.149-.61.446-.842.297-.23.743-.346 1.337-.346.726 0 1.395.206 2.006.619.115.082.305.214.57.396.23.132.461.198.693.198.528 0 .792-.256.792-.767 0-.133-.017-.277-.05-.434-.033-.157-.07-.338-.111-.545-.041-.206-.07-.383-.087-.532-.016-.149-.024-.28-.024-.396 0-.38.016-.76.049-1.14.033-.379.05-.676.05-.89 0-.281-.07-.471-.21-.57-.141-.1-.327-.149-.558-.149l-1.04.05c-.545.05-1.081.074-1.61.074H21.81c-.294-.002-.705-.01-1.233-.025-.594-.016-1.032-.024-1.312-.024l-1.783-.075c-.363 0-.627.054-.792.161-.166.108-.248.26-.248.458.148.562.297 1.115.446 1.66.115.528.173 1.295.173 2.302v7.949c0 1.519-.165 2.592-.495 3.219-.149.28-.223.66-.223 1.139 0 .165.087.28.26.347.173.066.359.099.557.099.182 0 .503-.021.966-.062.462-.042 1.18-.062 2.154-.062l2.971.05 2.972.074zm3.64 0c.115 0 .4-.013.854-.038.454-.024.953-.037 1.498-.037.446 0 .842.013 1.189.037.346.025.71.038 1.09.038.148 0 .284-.03.408-.087.124-.058.186-.17.186-.334-.182-.496-.364-1-.545-1.51-.165-.562-.248-1.214-.248-1.957v-5.497c0-.314.03-.533.087-.656.058-.124.128-.186.21-.186.397 0 .95.47 1.66 1.411.775 1.024 1.163 1.973 1.163 2.848v2.377c0 1.106-.09 1.808-.272 2.105-.182.297-.273.619-.273.966 0 .198.1.346.298.445.115.05.247.075.396.075.363-.017.714-.038 1.052-.062.339-.025.706-.037 1.102-.037.215 0 .545.016.99.05.446.032.826.049 1.14.049.148 0 .28-.025.396-.075.115-.05.173-.165.173-.346l-.396-1.536c-.1-.528-.149-1.246-.149-2.154v-8.617c0-.94.058-1.742.174-2.402.115-.66.247-1.255.396-1.783 0-.28-.198-.42-.594-.42-.463 0-.813.012-1.053.036-.24.025-.689.038-1.35.038l-2.401-.075c-.314 0-.512.042-.594.124-.083.083-.124.182-.124.297 0 .066.05.157.148.273.165.181.302.355.409.52.107.165.21.4.31.705.098.306.148.615.148.929v.396c0 .083-.041.149-.124.198-.016 0-.05.008-.099.025-.099 0-.28-.149-.545-.446-.445-.495-.891-.949-1.337-1.362-.545-.528-.999-.916-1.362-1.163-.478-.33-.9-.496-1.263-.496l-.742.05-.842.025-1.065-.025-.669-.05c-.363 0-.544.174-.544.52 0 .198.04.372.123.52.38.71.611 1.222.694 1.536.181.643.272 1.576.272 2.798v8.419c0 .478-.033.866-.099 1.163-.066.298-.173.628-.322.991-.198.528-.297.834-.297.916 0 .215.078.347.235.396.157.05.326.075.508.075zm19.537.198c1.865 0 3.273-.376 4.222-1.127.95-.751 1.424-1.902 1.424-3.454v-8.27c0-1.338.165-2.444.495-3.319.132-.346.198-.668.198-.966 0-.264-.165-.396-.495-.396-.28.017-.574.033-.88.05-.258.014-.696.022-1.315.024h-.356l-1.027-.049c-.355-.016-.747-.025-1.176-.025-.199 0-.335.037-.409.112-.074.074-.111.185-.111.334 0 .149.049.347.148.594.05.132.132.339.248.62.099.313.16.602.185.866.025.264.038.644.038 1.14v8.666c0 .346-.042.619-.124.817-.165.38-.495.57-.99.57-.413 0-.694-.12-.843-.36-.148-.239-.222-.598-.222-1.077v-7.8c0-.545.024-.961.074-1.25.05-.29.14-.73.272-1.325.033-.198.079-.404.136-.62.058-.214.116-.404.174-.569.057-.165.086-.272.086-.322 0-.264-.156-.396-.47-.396-.363 0-.685.013-.966.037-.28.025-.693.038-1.238.038h-.215c-.563-.003-1.028-.016-1.394-.038-.413-.024-.727-.037-.941-.037-.33 0-.496.132-.496.396 0 .166.046.397.137.694.09.297.16.536.21.718.05.181.09.536.124 1.065.033.528.05.949.05 1.263v9.062c0 1.255.305 2.22.916 2.898.858.957 2.368 1.436 4.531 1.436z" transform="translate(304 32) translate(0 1.857)"/>
            </g>
            <g>
                <path d="M19.743 13.668c0-.43-.116-.831-.284-1.212-1.973.238-3.934.606-5.777 1.09-.002.042-.013.08-.013.122 0 1.675 1.362 3.038 3.037 3.038 1.674 0 3.037-1.363 3.037-3.038z" transform="translate(304 32) translate(63.762)"/>
                <path d="M44.04 16.428c-1.184 0-2.325-.268-3.388-.8-.838-.418-1.78-.797-2.766-1.153-.383 2.127-2.239 3.75-4.474 3.75-2.513 0-4.556-2.045-4.556-4.557v-1.25c-1.534-.175-3.07-.273-4.558-.273-.566 0-1.143.024-1.72.05.12.481.203.973.203 1.473 0 3.35-2.725 6.075-6.075 6.075-3.075 0-5.594-2.302-5.993-5.268-.985.354-1.924.733-2.76 1.15-1.02.511-2.173.783-3.333.783-.073 0-.141-.028-.214-.03l3.188 5.918v15.671c0 2.512 2.043 4.556 4.556 4.556 2.158 0 3.968-1.506 4.439-3.523l6.373 12.039c.265.492.778.799 1.337.799.56 0 1.073-.307 1.338-.8l4.562-8.676c-.433.099-.88.161-1.343.161-3.356 0-6.075-2.72-6.075-6.074 0-3.355 2.72-6.075 6.075-6.075 2.604 0 4.808 1.647 5.671 3.95l9.647-17.914c-.046 0-.087.018-.133.018zM21.263 28.855c-2.512 0-4.556-2.044-4.556-4.556 0-.84.68-1.519 1.519-1.519.839 0 1.518.68 1.518 1.52 0 .837.681 1.518 1.52 1.518.837 0 1.518-.68 1.518-1.519 0-.84.679-1.519 1.518-1.519.84 0 1.52.68 1.52 1.52 0 2.511-2.045 4.555-4.557 4.555zm9.112-4.556c-.839 0-1.518-.68-1.518-1.519 0-.838.68-1.518 1.518-1.518.839 0 1.519.68 1.519 1.518 0 .84-.68 1.52-1.519 1.52z" transform="translate(304 32) translate(63.762)"/>
                <path d="M28.856 33.411c-1.675 0-3.038 1.363-3.038 3.038 0 1.674 1.363 3.037 3.038 3.037 1.674 0 3.037-1.363 3.037-3.037 0-1.675-1.363-3.038-3.037-3.038zM48.118 10.87c1.122-2.244.209-4.987-2.038-6.112C40.211 1.823 31.868 0 24.304 0 16.736 0 8.389 1.823 2.52 4.758.272 5.883-.643 8.624.48 10.872c1.1 2.188 3.913 3.139 6.114 2.037 4.62-2.31 11.568-3.801 17.704-3.801 2.47 0 5.067.25 7.595.69v3.87c0 .84.68 1.519 1.519 1.519.838 0 1.518-.68 1.518-1.519v-3.233c2.622.64 5.072 1.474 7.074 2.475 2.236 1.113 4.971.241 6.114-2.04z" transform="translate(304 32) translate(63.762)"/>
            </g>
        </g>
    </g>
</svg>
