<svg xmlns="http://www.w3.org/2000/svg" width="24" height="13"><path fill="#DFE0E5" d="M22.287 2.109A5.812 5.812 0 0018.15.395a5.81 5.81 0 00-4.136 1.714l-1.017 1.016 2.121 2.122 1.017-1.017a2.854 2.854 0 014.03 0 2.855 2.855 0 010 4.03 2.854 2.854 0 01-4.03 0l-.023-.024L9.985 2.11A5.806 5.806 0 005.85.395c-1.562 0-3.03.609-4.136 1.714A5.806 5.806 0 000 6.245c0 1.562.608 3.031 1.713 4.136s2.574 1.713 4.136 1.713a5.81 5.81 0 004.136-1.713l1.017-1.017L8.88 7.243 7.864 8.26a2.854 2.854 0 01-4.03 0 2.855 2.855 0 010-4.03 2.84 2.84 0 012.015-.833c.73 0 1.46.277 2.015.833l6.15 6.15a5.81 5.81 0 004.137 1.714c1.562 0 3.03-.608 4.136-1.713A5.81 5.81 0 0024 6.245a5.81 5.81 0 00-1.713-4.136z"/></svg>