<svg xmlns="http://www.w3.org/2000/svg" width="40" height="40"><path d="M25.41 16.383c.704 0 1.366-.274 1.863-.772.498-.497.772-1.16.772-1.863a2.638 2.638 0 00-5.272 0c0 .704.274 1.366.773 1.863.497.498 1.16.772 1.863.772zm-.76-3.394a1.07 1.07 0 011.518 0c.203.202.315.472.315.759 0 .286-.112.556-.315.759a1.07 1.07 0 01-1.832-.76c0-.286.112-.556.314-.758zm-.406 9.206a2.377 2.377 0 10-.002-4.753 2.377 2.377 0 00.002 4.753zm-.576-2.952a.807.807 0 01.576-.238.815.815 0 11-.576.238zm-4.6-2.394h1.087c.848 0 1.537-.69 1.537-1.537v-1.087c0-.847-.69-1.536-1.537-1.536h-1.087c-.847 0-1.536.689-1.536 1.536v1.087c0 .848.69 1.537 1.536 1.537zm.026-2.598h1.035v1.035h-1.035v-1.035z"/><path d="M39.873 33.792l-4.886-7.5a.784.784 0 00-.654-.355h-6.45l4.212-15.72a2.629 2.629 0 00-.687-2.563 2.627 2.627 0 00-2.563-.687L10.363 11.92a3.43 3.43 0 00-2.223 1.86 3.435 3.435 0 00-.013 2.898 29.043 29.043 0 006.745 9.26H6.364V4.688h27.188v15.78a.781.781 0 101.562.001V4.229l1.137-1.136a.783.783 0 00.228-.552V.78A.78.78 0 0035.7 0H4.216a.781.781 0 00-.781.781v1.76a.78.78 0 00.229.552L4.802 4.23v22.26L.123 33.798a.783.783 0 00-.123.42v5c0 .432.35.782.781.782H39.22c.431 0 .781-.35.781-.781v-5a.78.78 0 00-.127-.427zM29.25 8.477a1.08 1.08 0 011.054.282c.278.28.384.673.282 1.054l-4.454 16.621a2.811 2.811 0 00-1.823-.668h-.254a1.513 1.513 0 01-1.516-1.506 3.076 3.076 0 00-3.077-3.068 1.513 1.513 0 01-1.516-1.506 3.077 3.077 0 00-3.078-3.069 1.512 1.512 0 01-1.515-1.505c0-.833-.334-1.588-.876-2.141L29.25 8.477zM9.548 16.025a1.876 1.876 0 01.782-2.417c.81.03 1.46.691 1.46 1.503a3.077 3.077 0 003.078 3.069c.836 0 1.515.675 1.515 1.506a3.076 3.076 0 003.078 3.068c.836 0 1.516.675 1.516 1.506a3.076 3.076 0 003.077 3.068h.254c.668 0 1.215.519 1.257 1.171a1.873 1.873 0 01-2.528 1.015 27.486 27.486 0 01-13.49-13.489zM4.998 1.563h29.919v.654l-.908.908H5.906l-.908-.908v-.655zM3.212 31.87c.023.002.046.004.07.004h10.862a.78.78 0 000-1.563H4.21l1.8-2.812h10.714a29.073 29.073 0 005.661 3.435 3.437 3.437 0 004.758-2.235l.321-1.2h6.445l3.868 5.938H2.21l1.003-1.567zM21.26 35c-.262.421-.728.703-1.26.703s-.998-.282-1.26-.703h2.52zm17.177 3.438H1.563V35h15.492c.346 1.303 1.535 2.266 2.945 2.266s2.599-.963 2.945-2.266h15.492v3.438z"/><path d="M18.05 31.094a.79.79 0 00-.229-.553.788.788 0 00-.552-.229.787.787 0 00-.782.782.785.785 0 00.782.781.788.788 0 00.552-.229.788.788 0 00.229-.552zm16.283-8.281a.785.785 0 00-.782.781.785.785 0 00.782.781.785.785 0 00.782-.781.787.787 0 00-.782-.782z"/></svg>