<svg xmlns="http://www.w3.org/2000/svg" width="24" height="21"><g fill="#DFE0E5"><path d="M22.858 1.286a1.212 1.212 0 10-1.693 1.737c.004.004.401.465.364 1.346-.017.39-.133.964-.505 1.705a4.86 4.86 0 011.064.784c.286.28.532.599.744.944.686-1.142 1.073-2.255 1.12-3.33.085-1.978-.973-3.069-1.094-3.186zM18.274 7c-1.612 0-3.325.806-4.26 2.108-4.79 6.68-9.635 7.023-12.183 7.023-.291 0-.553-.005-.78-.005-.887 0-1.266.068-.93.73.795 1.571 4.42 3.494 8.875 3.494 3.587 0 7.711-1.248 11.323-4.933 1.822-1.858 2.495-5.584.637-7.405C20.242 7.312 19.278 7 18.274 7z"/><path d="M3.109 12.926c-.091-1.18.129-3.856 3.645-5.362 0 0-1.305 3.157.463 4.754C8.499 11.317 9.402 9.682 9.494 8.1 9.76 3.54 6.576 1.138 4.508.07a.556.556 0 00-.759.73c.8 1.696 1.337 4.73-2.08 8.26-1.044 1.078-.194 3.06 1.44 3.867z"/></g></svg>