<svg xmlns="http://www.w3.org/2000/svg" width="64" height="65"><g fill="none" fill-rule="evenodd" transform="translate(1 1)"><circle cx="9" cy="37" r="2" fill="#000"/><circle cx="18" cy="37" r="2" fill="#000"/><circle cx="27" cy="37" r="2" fill="#000"/><circle cx="9" cy="45" r="2" fill="#000"/><circle cx="18" cy="45" r="2" fill="#000"/><circle cx="27" cy="45" r="2" fill="#000"/><circle cx="9" cy="53" r="2" fill="#000"/><circle cx="18" cy="53" r="2" fill="#000"/><circle cx="27" cy="53" r="2" fill="#000"/><path stroke="#000" stroke-width="2" d="M26 8h6c2.21 0 4 1.79 4 4v47c0 2.21-1.79 4-4 4H4c-2.21 0-4-1.79-4-4V12c0-2.21 1.79-4 4-4h6m26 5h2a2 2 0 012 2v28a2 2 0 01-2 2h-2 0V13zm4 3h19a3 3 0 013 3v20a3 3 0 01-3 3H40h0V16z"/><path stroke="#000" stroke-width="2" d="M40 21h22v6H40z"/><path stroke="#E52D2D" stroke-linejoin="round" stroke-width="2" d="M10 0h16v12H10z"/><path stroke="#000" stroke-linecap="round" stroke-linejoin="round" stroke-width="2" d="M29 12H7"/><rect width="26" height="11" x="5" y="17" stroke="#000" stroke-width="2" rx="1"/></g></svg>