<svg xmlns="http://www.w3.org/2000/svg" width="40" height="40"><path d="M18.163 30.494a.782.782 0 101.106 1.105.782.782 0 00-1.106-1.105z"/><path d="M38.197 29.137l-5.932-5.043a.661.661 0 00-.086-.064 3.886 3.886 0 00-4.86.533l-3.233 3.234a.781.781 0 01-.851.17c-3.652-1.511-6.652-3.785-8.916-6.76-1.727-2.267-2.35-4.07-2.432-4.323a.797.797 0 00-.047-.161.774.774 0 01.17-.85l3.233-3.235a3.883 3.883 0 00.533-4.86l-.025-.036-4.283-5.952a3.906 3.906 0 00-6.045-.646l-.648.648-.001.002-2.312 2.312c-2.757 2.757-3.208 6.9-1.304 11.982 1.63 4.353 4.895 9.117 9.193 13.414 4.398 4.399 9.291 7.724 13.777 9.363 4.44 1.622 9.162 1.822 12.505-1.52l2.18-2.181a3.907 3.907 0 00-.616-6.027zm-6.9-3.816l5.927 5.04a.759.759 0 00.086.063 2.344 2.344 0 01.398 3.635l-.162.162-10.107-7.568.986-.985a2.329 2.329 0 012.872-.347zM10.163 2.648l.024.037 4.282 5.95a2.33 2.33 0 01-.33 2.898l-.956.956L6.344 2.433l.184-.184a2.345 2.345 0 013.635.399zm14.5 34.75c-4.275-1.563-8.966-4.76-13.208-9-4.143-4.144-7.28-8.71-8.834-12.858-1.167-3.114-1.95-7.434.946-10.33L5.22 3.558l6.838 10.056-1.153 1.154a2.333 2.333 0 00-.535 2.487c.246 1.012 1.381 3.113 2.526 4.66 1.684 2.279 4.742 5.428 9.742 7.496.878.364 1.88.164 2.553-.508l1.132-1.133 10.107 7.568-.902.902c-3.104 3.105-7.621 2.343-10.864 1.158z"/><path d="M16.697 28.629c-.825-.724-2.253-1.968-3.004-2.742-1.844-1.894-3.778-4.19-4.927-5.849a.782.782 0 00-1.285.89c1.45 2.092 3.581 4.496 5.092 6.049.793.816 2.233 2.072 3.094 2.826a.78.78 0 101.03-1.174z"/></svg>