<svg xmlns="http://www.w3.org/2000/svg" width="24" height="24"><path d="M19.74 4.26C18.457 2.977 14.163-1.1 12.78.283c-1.384 1.384 2.694 5.678 3.977 6.96 1.283 1.283 5.577 5.361 6.96 3.978 1.384-1.384-2.694-5.678-3.977-6.96zm-11.463.525a10.818 10.818 0 00-2.628 11.133.698.698 0 00.17.275l1.988 1.988a.698.698 0 00.275.17c3.934 1.312 8.2.305 11.133-2.628l2.933-2.933c-1.63-.408-3.742-1.908-6.386-4.552-2.644-2.644-4.144-4.755-4.552-6.386L8.277 4.785zM4.423 16.594l-1.199 1.218H2.109A2.096 2.096 0 000 19.902a2.11 2.11 0 001.992 2.106c.028.52.244 1.004.614 1.374a2.096 2.096 0 003.582-1.492v-1.114l1.218-1.199a2.103 2.103 0 01-.593-.401l-1.989-1.989a2.103 2.103 0 01-.401-.593z" fill="#DFE0E5"/></svg>