<svg xmlns="http://www.w3.org/2000/svg" width="24" height="19"><path d="M23.275 5.15L.826 3.055A.755.755 0 000 3.807V7.5c0 .418.338.756.756.756a1.49 1.49 0 011.489 1.49 1.49 1.49 0 01-1.49 1.488.756.756 0 00-.755.756v3.448c0 .39.297.716.686.753 23.487 2.194 22.464 2.1 22.519 2.1a.757.757 0 00.756-.756V5.903a.756.756 0 00-.686-.752zM8.39 12.33a1.773 1.773 0 110-3.547 1.774 1.774 0 110 3.548zm7.007 2.529a.862.862 0 110-1.724.862.862 0 010 1.724zm1.132-3.81a1.775 1.775 0 11.001-3.55 1.775 1.775 0 01-.001 3.55zm4.609-7.616a.733.733 0 00.687-1.122L20.584.351a.757.757 0 00-.757-.342L8.719 1.775c-.292.047-.278.472.016.5l12.403 1.158z" fill="#DFE0E5"/></svg>