<svg xmlns="http://www.w3.org/2000/svg" width="71" height="70"><g fill="none" fill-rule="evenodd" transform="matrix(-1 0 0 1 70 1)"><path stroke="#000" stroke-width="2" d="M26 18h7a2 2 0 110 4h-7 0v-4z"/><g stroke="#000" stroke-width="2"><path d="M41.455 56.165A9.013 9.013 0 0041 59a9 9 0 1017.485-3.01"/><path d="M47.123 56.221A3.999 3.999 0 0050 63a3.999 3.999 0 002.772-6.884"/></g><path d="M3 59a9 9 0 0018 0M8 59c0 2.21 1.79 4 4 4s4-1.79 4-4" stroke="#000" stroke-width="2"/><path stroke="#000" stroke-linejoin="round" stroke-width="1.846" d="M24 59c0-6.627-5.373-12-12-12S0 52.373 0 59h24z"/><rect width="17" height="5" x="33" y="32" stroke="#000" stroke-width="2" rx="2.5"/><path stroke="#000" stroke-linecap="round" stroke-linejoin="round" stroke-width="2" d="M20 26a6 6 0 100-12v12zm0-10c-2.21 0-4 1.79-4 4s1.79 4 4 4"/><path stroke="#000" stroke-width="2" d="M9.5 47c-1.333-9.333 1.167-17.167 7.5-23.5m4.5 2C14.833 37.167 16 44 25 46c6 .667 9.333-2.333 10-9"/><path stroke="#000" stroke-linecap="round" stroke-linejoin="round" stroke-width="2" d="M24 56h37.5c-1.667-9-5.833-15.5-12.5-19.5M60 50h-5.5M40 50H28.5"/><path stroke="#000" stroke-width="2" d="M53 16h16v16H53z"/><path stroke="#E52D2D" stroke-width="2" d="M59 16h4v6h-4zM54 0h4v6h-4z"/><path stroke="#000" stroke-width="2" d="M48 0h16v16H48z"/><path stroke="#000" stroke-linecap="round" stroke-linejoin="round" stroke-width="2" d="M57.5 44l8.5-9.5V32"/><path stroke="#000" stroke-linejoin="round" stroke-width="2" d="M49 27h4v5h-5z"/><path stroke="#000" stroke-linecap="round" stroke-linejoin="round" stroke-width="2" d="M12 68h54"/></g></svg>